<?xml version="1.0" encoding="UTF-8"?>
<svg id="Layer_1" data-name="Layer 1" xmlns="http://www.w3.org/2000/svg" viewBox="0 0 200 200">
  <defs>
    <style>
      .cls-1 {
        fill: none;
        stroke: #000;
        stroke-linecap: round;
        stroke-linejoin: round;
        stroke-width: 2.5844366px;
      }

      .cls-2 {
        fill: #dfe8f4;
      }

      .cls-2, .cls-3 {
        stroke-width: 0px;
      }

      .cls-3 {
        fill: #fcb22d;
      }
    </style>
  </defs>
  <g>
    <polyline class="cls-3" points="13.842021 163.2674006 13.842021 23.5591526 45.1463688 23.5591526 45.1463688 182.6895874 13.842021 182.6895874 13.842021 171.6803492"/>
    <polyline class="cls-3" points="179.4462067 42.7455856 179.4462067 182.6895874 148.1418588 182.6895874 148.1418588 23.5591526 179.4462067 23.5591526 179.4462067 32.3760686"/>
  </g>
  <g>
    <g>
      <path class="cls-3" d="m45.1463688,99.9989755v25.2743537c3.2983697-6.0021645,12.311214-10.220838,21.0555631-10.220838h60.865286c11.6399762,0,21.074641-7.4403806,21.074641-16.6258622v-27.3642614c-2.4162217,7.0951057-11.3330913,12.2917849-21.074641,12.2917849h-60.865286c-11.6399762,0-21.0555631,7.4595755-21.0555631,16.6448231Z"/>
      <path class="cls-2" d="m45.1463688,140.3567869v25.2935486c3.2983697-6.0021645,12.311214-10.2210721,21.0555631-10.2210721h60.865286c11.6399762,0,21.074641-7.4593414,21.074641-16.6448231v-27.3644955c-2.4162217,7.0951057-11.3330913,12.3109799-21.074641,12.3109799h-60.865286c-11.6399762,0-21.0555631,7.4406147-21.0555631,16.6258622Z"/>
      <path class="cls-2" d="m45.1463688,59.6319176v25.2741196c3.2983697-6.0019304,12.311214-10.220604,21.0555631-10.220604h60.865286c11.6399762,0,21.074641-7.4598096,21.074641-16.6450572v-27.3453006c-2.4162217,7.0761449-11.3330913,12.292019-21.074641,12.292019h-60.865286c-11.6399762,0-21.0555631,7.4401465-21.0555631,16.6448231Z"/>
    </g>
    <g>
      <path class="cls-1" d="m50.5659228,95.9754176v25.2743537c3.2983697-6.0021645,12.311214-10.220838,21.0555631-10.220838h60.865286c11.6399762,0,21.074641-7.4403806,21.074641-16.6258622v-27.3642614c-2.4162217,7.0951057-11.3330913,12.2917849-21.074641,12.2917849h-60.865286c-11.6399762,0-21.0555631,7.4595755-21.0555631,16.6448231Z"/>
      <path class="cls-1" d="m50.5659228,136.3332291v25.2935486c3.2983697-6.0021645,12.311214-10.2210721,21.0555631-10.2210721h60.865286c11.6399762,0,21.074641-7.4593414,21.074641-16.6448231v-27.3644955c-2.4162217,7.0951057-11.3330913,12.3109799-21.074641,12.3109799h-60.865286c-11.6399762,0-21.0555631,7.4406147-21.0555631,16.6258622Z"/>
      <path class="cls-1" d="m104.4665425,38.9635368h-32.8450566c-11.6399762,0-21.0555631,7.4401465-21.0555631,16.6448231v25.2741196c3.2983697-6.0019304,12.311214-10.220604,21.0555631-10.220604h60.865286c11.6399762,0,21.074641-7.4598096,21.074641-16.6450572v-27.3453006c-2.4162217,7.0761449-11.3330913,12.292019-21.074641,12.292019h-12.7389049"/>
      <line class="cls-1" x1="113.5839616" y1="38.9635368" x2="109.4747087" y2="38.9635368"/>
    </g>
  </g>
  <g>
    <polyline class="cls-1" points="19.261575 145.2797539 19.261575 18.6026309 50.5659228 18.6026309 50.5659228 177.7330657 19.261575 177.7330657 19.261575 166.7238275"/>
    <line class="cls-1" x1="19.261575" y1="158.3108788" x2="19.261575" y2="153.8884486"/>
    <polyline class="cls-1" points="184.8657607 37.7890639 184.8657607 177.7330657 153.5614129 177.7330657 153.5614129 80.3232249 153.5614129 18.6026309 184.8657607 18.6026309 184.8657607 27.4195469"/>
  </g>
</svg>